# xmcd
# 
# Track frame offsets:
#     150
#     19615
#     48375
#     67912
# 
# Disc length: 1287
# 
# Revision: 2
# Processed by: cddbd v1.5.2PL0 Copyright (c) Steve Scherf et al.
# Submitted via: fre:ac v1.0.31
# 
DISCID=28050504
DTITLE=前田亘輝 - 君だけのTomorrow
DYEAR=1997
DGENRE=JPop
TTITLE0=君だけのTomorrow
TTITLE1=J's Dream -夢をつかむまで-
TTITLE2=君だけのTomorrow (オリジナル・カラオケ)
TTITLE3=J's Dream -夢をつかむまで- （オリジナル・カラオケ）
EXTD=YEAR: 1997
EXTT0=
EXTT1=
EXTT2=
EXTT3=
PLAYORDER=
